<mxfile host="app.diagrams.net" modified="2022-06-23T09:10:42.751Z" agent="5.0 (Macintosh; Intel Mac OS X 10_15_7) AppleWebKit/605.1.15 (KHTML, like Gecko) Version/15.5 Safari/605.1.15" etag="InitQVXgVZg7RPngGZSj" version="20.0.3" type="github">
  <diagram id="y3Cl--LZHW0YaVjfiVAI" name="Page-1">
    <mxGraphModel dx="1298" dy="840" grid="1" gridSize="10" guides="1" tooltips="1" connect="1" arrows="1" fold="1" page="1" pageScale="1" pageWidth="827" pageHeight="1169" math="0" shadow="0">
      <root>
        <mxCell id="0" />
        <mxCell id="1" parent="0" />
        <mxCell id="Mi3CnOvdxR0ZW0WN2Oy1-1" value="通用语言" style="ellipse;whiteSpace=wrap;html=1;" parent="1" vertex="1">
          <mxGeometry x="660" y="400" width="100" height="70" as="geometry" />
        </mxCell>
        <mxCell id="Mi3CnOvdxR0ZW0WN2Oy1-2" value="模型驱动&lt;br&gt;设计" style="ellipse;whiteSpace=wrap;html=1;" parent="1" vertex="1">
          <mxGeometry x="870" y="450" width="100" height="70" as="geometry" />
        </mxCell>
        <mxCell id="Mi3CnOvdxR0ZW0WN2Oy1-4" value="有界上下文" style="ellipse;whiteSpace=wrap;html=1;" parent="1" vertex="1">
          <mxGeometry x="520" y="515" width="100" height="70" as="geometry" />
        </mxCell>
        <mxCell id="Mi3CnOvdxR0ZW0WN2Oy1-5" value="持续集成" style="ellipse;whiteSpace=wrap;html=1;" parent="1" vertex="1">
          <mxGeometry x="370" y="440" width="100" height="70" as="geometry" />
        </mxCell>
        <mxCell id="Mi3CnOvdxR0ZW0WN2Oy1-6" value="核心域" style="ellipse;whiteSpace=wrap;html=1;" parent="1" vertex="1">
          <mxGeometry x="510" y="290" width="100" height="70" as="geometry" />
        </mxCell>
        <mxCell id="Mi3CnOvdxR0ZW0WN2Oy1-7" value="大泥球" style="ellipse;whiteSpace=wrap;html=1;" parent="1" vertex="1">
          <mxGeometry x="150" y="470" width="100" height="70" as="geometry" />
        </mxCell>
        <mxCell id="Mi3CnOvdxR0ZW0WN2Oy1-8" value="独立类" style="ellipse;whiteSpace=wrap;html=1;" parent="1" vertex="1">
          <mxGeometry x="1170" y="260" width="100" height="70" as="geometry" />
        </mxCell>
        <mxCell id="Mi3CnOvdxR0ZW0WN2Oy1-9" value="上下文映射" style="ellipse;whiteSpace=wrap;html=1;" parent="1" vertex="1">
          <mxGeometry x="320" y="600" width="100" height="70" as="geometry" />
        </mxCell>
        <mxCell id="Mi3CnOvdxR0ZW0WN2Oy1-12" value="通用子域" style="ellipse;whiteSpace=wrap;html=1;" parent="1" vertex="1">
          <mxGeometry x="570" y="160" width="100" height="70" as="geometry" />
        </mxCell>
        <mxCell id="Mi3CnOvdxR0ZW0WN2Oy1-13" value="支撑核心" style="ellipse;whiteSpace=wrap;html=1;" parent="1" vertex="1">
          <mxGeometry x="420" y="160" width="100" height="70" as="geometry" />
        </mxCell>
        <mxCell id="Mi3CnOvdxR0ZW0WN2Oy1-14" value="揭示意的&lt;br&gt;接口" style="ellipse;whiteSpace=wrap;html=1;" parent="1" vertex="1">
          <mxGeometry x="840" y="280" width="100" height="70" as="geometry" />
        </mxCell>
        <mxCell id="Mi3CnOvdxR0ZW0WN2Oy1-15" value="断言" style="ellipse;whiteSpace=wrap;html=1;" parent="1" vertex="1">
          <mxGeometry x="900" y="120" width="100" height="70" as="geometry" />
        </mxCell>
        <mxCell id="Mi3CnOvdxR0ZW0WN2Oy1-16" value="无副作用的&lt;br&gt;函数" style="ellipse;whiteSpace=wrap;html=1;" parent="1" vertex="1">
          <mxGeometry x="1090" y="180" width="100" height="70" as="geometry" />
        </mxCell>
        <mxCell id="Mi3CnOvdxR0ZW0WN2Oy1-17" value="概念性轮廓" style="ellipse;whiteSpace=wrap;html=1;" parent="1" vertex="1">
          <mxGeometry x="1090" y="360" width="100" height="70" as="geometry" />
        </mxCell>
        <mxCell id="nDJIqRFH-Br7_tVDaRdu-1" value="实体&lt;br&gt;（引用对象）" style="ellipse;whiteSpace=wrap;html=1;" parent="1" vertex="1">
          <mxGeometry x="1000" y="640" width="100" height="70" as="geometry" />
        </mxCell>
        <mxCell id="nDJIqRFH-Br7_tVDaRdu-2" value="领域事件" style="ellipse;whiteSpace=wrap;html=1;" parent="1" vertex="1">
          <mxGeometry x="830" y="585" width="100" height="70" as="geometry" />
        </mxCell>
        <mxCell id="nDJIqRFH-Br7_tVDaRdu-4" value="工厂" style="ellipse;whiteSpace=wrap;html=1;" parent="1" vertex="1">
          <mxGeometry x="1241" y="710" width="100" height="70" as="geometry" />
        </mxCell>
        <mxCell id="nDJIqRFH-Br7_tVDaRdu-5" value="服务" style="ellipse;whiteSpace=wrap;html=1;" parent="1" vertex="1">
          <mxGeometry x="1220" y="540" width="100" height="70" as="geometry" />
        </mxCell>
        <mxCell id="nDJIqRFH-Br7_tVDaRdu-6" value="信息库&lt;span style=&quot;caret-color: rgba(0, 0, 0, 0); color: rgba(0, 0, 0, 0); font-family: monospace; font-size: 0px; text-align: start;&quot;&gt;%3CmxGraphModel%3E%3Croot%3E%3CmxCell%20id%3D%220%22%2F%3E%3CmxCell%20id%3D%221%22%20parent%3D%220%22%2F%3E%3CmxCell%20id%3D%222%22%20value%3D%22%E5%B7%A5%E5%8E%82%22%20style%3D%22ellipse%3BwhiteSpace%3Dwrap%3Bhtml%3D1%3B%22%20vertex%3D%221%22%20parent%3D%221%22%3E%3CmxGeometry%20x%3D%221140%22%20y%3D%22680%22%20width%3D%22100%22%20height%3D%2270%22%20as%3D%22geometry%22%2F%3E%3C%2FmxCell%3E%3C%2Froot%3E%3C%2FmxGraphModel%3E&lt;/span&gt;" style="ellipse;whiteSpace=wrap;html=1;" parent="1" vertex="1">
          <mxGeometry x="870" y="780" width="100" height="70" as="geometry" />
        </mxCell>
        <mxCell id="nDJIqRFH-Br7_tVDaRdu-7" value="分层架构" style="ellipse;whiteSpace=wrap;html=1;" parent="1" vertex="1">
          <mxGeometry x="1210" y="450" width="100" height="70" as="geometry" />
        </mxCell>
        <mxCell id="nDJIqRFH-Br7_tVDaRdu-9" value="聚合" style="ellipse;whiteSpace=wrap;html=1;" parent="1" vertex="1">
          <mxGeometry x="1040" y="840" width="100" height="70" as="geometry" />
        </mxCell>
        <mxCell id="6l1WujIoDoaz9oLlzbZu-4" value="" style="curved=1;endArrow=classic;html=1;rounded=0;exitX=0.5;exitY=1;exitDx=0;exitDy=0;entryX=0.5;entryY=0;entryDx=0;entryDy=0;" edge="1" parent="1" source="Mi3CnOvdxR0ZW0WN2Oy1-2" target="nDJIqRFH-Br7_tVDaRdu-2">
          <mxGeometry width="50" height="50" relative="1" as="geometry">
            <mxPoint x="800" y="520" as="sourcePoint" />
            <mxPoint x="850" y="470" as="targetPoint" />
            <Array as="points">
              <mxPoint x="880" y="530" />
            </Array>
          </mxGeometry>
        </mxCell>
        <mxCell id="6l1WujIoDoaz9oLlzbZu-68" value="表达模型" style="edgeLabel;html=1;align=center;verticalAlign=middle;resizable=0;points=[];" vertex="1" connectable="0" parent="6l1WujIoDoaz9oLlzbZu-4">
          <mxGeometry x="0.1544" y="10" relative="1" as="geometry">
            <mxPoint as="offset" />
          </mxGeometry>
        </mxCell>
        <mxCell id="6l1WujIoDoaz9oLlzbZu-5" value="" style="curved=1;endArrow=classic;html=1;rounded=0;exitX=0.5;exitY=1;exitDx=0;exitDy=0;entryX=0;entryY=0;entryDx=0;entryDy=0;" edge="1" parent="1" source="Mi3CnOvdxR0ZW0WN2Oy1-2" target="nDJIqRFH-Br7_tVDaRdu-1">
          <mxGeometry width="50" height="50" relative="1" as="geometry">
            <mxPoint x="980" y="505" as="sourcePoint" />
            <mxPoint x="850" y="670" as="targetPoint" />
            <Array as="points">
              <mxPoint x="945" y="610" />
            </Array>
          </mxGeometry>
        </mxCell>
        <mxCell id="6l1WujIoDoaz9oLlzbZu-69" value="表达模型" style="edgeLabel;html=1;align=center;verticalAlign=middle;resizable=0;points=[];" vertex="1" connectable="0" parent="6l1WujIoDoaz9oLlzbZu-5">
          <mxGeometry x="0.3375" y="18" relative="1" as="geometry">
            <mxPoint as="offset" />
          </mxGeometry>
        </mxCell>
        <mxCell id="6l1WujIoDoaz9oLlzbZu-7" value="值对象&lt;br&gt;" style="ellipse;whiteSpace=wrap;html=1;" vertex="1" parent="1">
          <mxGeometry x="1080" y="570" width="100" height="70" as="geometry" />
        </mxCell>
        <mxCell id="6l1WujIoDoaz9oLlzbZu-8" value="&lt;span style=&quot;caret-color: rgb(0, 0, 0); color: rgb(0, 0, 0); font-family: Helvetica; font-size: 11px; font-style: normal; font-variant-caps: normal; font-weight: 400; letter-spacing: normal; text-align: center; text-indent: 0px; text-transform: none; word-spacing: 0px; -webkit-text-stroke-width: 0px; background-color: rgb(255, 255, 255); text-decoration: none; float: none; display: inline !important;&quot;&gt;表达模型&lt;/span&gt;" style="curved=1;endArrow=classic;html=1;rounded=0;exitX=0.5;exitY=1;exitDx=0;exitDy=0;entryX=0.5;entryY=0;entryDx=0;entryDy=0;" edge="1" parent="1" source="Mi3CnOvdxR0ZW0WN2Oy1-2" target="6l1WujIoDoaz9oLlzbZu-7">
          <mxGeometry width="50" height="50" relative="1" as="geometry">
            <mxPoint x="1030" y="540" as="sourcePoint" />
            <mxPoint x="1140" y="600" as="targetPoint" />
            <Array as="points" />
          </mxGeometry>
        </mxCell>
        <mxCell id="6l1WujIoDoaz9oLlzbZu-9" value="" style="curved=1;endArrow=classic;html=1;rounded=0;exitX=1;exitY=0.5;exitDx=0;exitDy=0;" edge="1" parent="1" source="Mi3CnOvdxR0ZW0WN2Oy1-2" target="nDJIqRFH-Br7_tVDaRdu-5">
          <mxGeometry width="50" height="50" relative="1" as="geometry">
            <mxPoint x="1030" y="540" as="sourcePoint" />
            <mxPoint x="1140" y="600" as="targetPoint" />
            <Array as="points">
              <mxPoint x="1150" y="520" />
            </Array>
          </mxGeometry>
        </mxCell>
        <mxCell id="6l1WujIoDoaz9oLlzbZu-70" value="表达模型" style="edgeLabel;html=1;align=center;verticalAlign=middle;resizable=0;points=[];" vertex="1" connectable="0" parent="6l1WujIoDoaz9oLlzbZu-9">
          <mxGeometry x="-0.1365" y="-2" relative="1" as="geometry">
            <mxPoint x="1" as="offset" />
          </mxGeometry>
        </mxCell>
        <mxCell id="6l1WujIoDoaz9oLlzbZu-10" value="" style="curved=1;endArrow=classic;html=1;rounded=0;exitX=1;exitY=0;exitDx=0;exitDy=0;entryX=0;entryY=0.5;entryDx=0;entryDy=0;" edge="1" parent="1" source="Mi3CnOvdxR0ZW0WN2Oy1-2" target="nDJIqRFH-Br7_tVDaRdu-7">
          <mxGeometry width="50" height="50" relative="1" as="geometry">
            <mxPoint x="1080" y="505" as="sourcePoint" />
            <mxPoint x="1196.739697892575" y="558.8669054870231" as="targetPoint" />
            <Array as="points">
              <mxPoint x="1160" y="450" />
            </Array>
          </mxGeometry>
        </mxCell>
        <mxCell id="6l1WujIoDoaz9oLlzbZu-71" value="隔离领域" style="edgeLabel;html=1;align=center;verticalAlign=middle;resizable=0;points=[];" vertex="1" connectable="0" parent="6l1WujIoDoaz9oLlzbZu-10">
          <mxGeometry x="0.0369" y="-6" relative="1" as="geometry">
            <mxPoint as="offset" />
          </mxGeometry>
        </mxCell>
        <mxCell id="6l1WujIoDoaz9oLlzbZu-11" value="" style="curved=1;endArrow=classic;html=1;rounded=0;exitX=1.02;exitY=0.4;exitDx=0;exitDy=0;entryX=0;entryY=1;entryDx=0;entryDy=0;exitPerimeter=0;" edge="1" parent="1" source="nDJIqRFH-Br7_tVDaRdu-9" target="nDJIqRFH-Br7_tVDaRdu-4">
          <mxGeometry width="50" height="50" relative="1" as="geometry">
            <mxPoint x="1205" y="780" as="sourcePoint" />
            <mxPoint x="1235" y="860" as="targetPoint" />
            <Array as="points">
              <mxPoint x="1240" y="810" />
            </Array>
          </mxGeometry>
        </mxCell>
        <mxCell id="6l1WujIoDoaz9oLlzbZu-76" value="被封装" style="edgeLabel;html=1;align=center;verticalAlign=middle;resizable=0;points=[];" vertex="1" connectable="0" parent="6l1WujIoDoaz9oLlzbZu-11">
          <mxGeometry x="0.1287" y="4" relative="1" as="geometry">
            <mxPoint x="-1" as="offset" />
          </mxGeometry>
        </mxCell>
        <mxCell id="6l1WujIoDoaz9oLlzbZu-12" value="" style="curved=1;endArrow=classic;html=1;rounded=0;exitX=1;exitY=0.5;exitDx=0;exitDy=0;entryX=0;entryY=0;entryDx=0;entryDy=0;" edge="1" parent="1" source="6l1WujIoDoaz9oLlzbZu-7" target="nDJIqRFH-Br7_tVDaRdu-4">
          <mxGeometry width="50" height="50" relative="1" as="geometry">
            <mxPoint x="1138.68" y="680" as="sourcePoint" />
            <mxPoint x="1301.3246609406726" y="601.7487373415292" as="targetPoint" />
            <Array as="points">
              <mxPoint x="1246.68" y="652" />
            </Array>
          </mxGeometry>
        </mxCell>
        <mxCell id="6l1WujIoDoaz9oLlzbZu-78" value="被封装" style="edgeLabel;html=1;align=center;verticalAlign=middle;resizable=0;points=[];" vertex="1" connectable="0" parent="6l1WujIoDoaz9oLlzbZu-12">
          <mxGeometry x="-0.2754" y="-4" relative="1" as="geometry">
            <mxPoint y="1" as="offset" />
          </mxGeometry>
        </mxCell>
        <mxCell id="6l1WujIoDoaz9oLlzbZu-19" value="" style="curved=1;endArrow=classic;html=1;rounded=0;exitX=0;exitY=0.5;exitDx=0;exitDy=0;entryX=0.5;entryY=1;entryDx=0;entryDy=0;" edge="1" parent="1" source="nDJIqRFH-Br7_tVDaRdu-1" target="nDJIqRFH-Br7_tVDaRdu-2">
          <mxGeometry width="50" height="50" relative="1" as="geometry">
            <mxPoint x="994.6446609406726" y="529.7487373415292" as="sourcePoint" />
            <mxPoint x="1020" y="670" as="targetPoint" />
            <Array as="points">
              <mxPoint x="920" y="720" />
            </Array>
          </mxGeometry>
        </mxCell>
        <mxCell id="6l1WujIoDoaz9oLlzbZu-95" value="用其发送&lt;br&gt;状态变化" style="edgeLabel;html=1;align=center;verticalAlign=middle;resizable=0;points=[];" vertex="1" connectable="0" parent="6l1WujIoDoaz9oLlzbZu-19">
          <mxGeometry x="-0.1379" y="-11" relative="1" as="geometry">
            <mxPoint as="offset" />
          </mxGeometry>
        </mxCell>
        <mxCell id="6l1WujIoDoaz9oLlzbZu-20" value="" style="curved=1;endArrow=classic;html=1;rounded=0;exitX=1;exitY=1;exitDx=0;exitDy=0;" edge="1" parent="1" source="nDJIqRFH-Br7_tVDaRdu-1" target="nDJIqRFH-Br7_tVDaRdu-9">
          <mxGeometry width="50" height="50" relative="1" as="geometry">
            <mxPoint x="1170" y="655" as="sourcePoint" />
            <mxPoint x="1265.6446609406726" y="730.2512626584708" as="targetPoint" />
            <Array as="points" />
          </mxGeometry>
        </mxCell>
        <mxCell id="6l1WujIoDoaz9oLlzbZu-73" value="维护完整性" style="edgeLabel;html=1;align=center;verticalAlign=middle;resizable=0;points=[];" vertex="1" connectable="0" parent="6l1WujIoDoaz9oLlzbZu-20">
          <mxGeometry x="-0.2825" y="2" relative="1" as="geometry">
            <mxPoint as="offset" />
          </mxGeometry>
        </mxCell>
        <mxCell id="6l1WujIoDoaz9oLlzbZu-21" value="" style="curved=1;endArrow=classic;html=1;rounded=0;exitX=0;exitY=0.5;exitDx=0;exitDy=0;entryX=1;entryY=1;entryDx=0;entryDy=0;" edge="1" parent="1" source="nDJIqRFH-Br7_tVDaRdu-9" target="nDJIqRFH-Br7_tVDaRdu-6">
          <mxGeometry width="50" height="50" relative="1" as="geometry">
            <mxPoint x="1055.3553390593274" y="729.7487373415292" as="sourcePoint" />
            <mxPoint x="1080.6480059040914" y="820.6176687650423" as="targetPoint" />
            <Array as="points">
              <mxPoint x="990" y="870" />
            </Array>
          </mxGeometry>
        </mxCell>
        <mxCell id="6l1WujIoDoaz9oLlzbZu-22" value="" style="curved=1;endArrow=classic;html=1;rounded=0;exitX=0;exitY=1;exitDx=0;exitDy=0;entryX=0.5;entryY=0;entryDx=0;entryDy=0;" edge="1" parent="1" source="nDJIqRFH-Br7_tVDaRdu-1" target="nDJIqRFH-Br7_tVDaRdu-6">
          <mxGeometry width="50" height="50" relative="1" as="geometry">
            <mxPoint x="1055.3553390593274" y="729.7487373415292" as="sourcePoint" />
            <mxPoint x="1080.6480059040914" y="820.6176687650423" as="targetPoint" />
            <Array as="points">
              <mxPoint x="950" y="720" />
            </Array>
          </mxGeometry>
        </mxCell>
        <mxCell id="6l1WujIoDoaz9oLlzbZu-74" value="被访问" style="edgeLabel;html=1;align=center;verticalAlign=middle;resizable=0;points=[];" vertex="1" connectable="0" parent="6l1WujIoDoaz9oLlzbZu-22">
          <mxGeometry x="0.1376" y="13" relative="1" as="geometry">
            <mxPoint x="1" as="offset" />
          </mxGeometry>
        </mxCell>
        <mxCell id="6l1WujIoDoaz9oLlzbZu-23" value="" style="curved=1;endArrow=classic;html=1;rounded=0;exitX=1;exitY=0.5;exitDx=0;exitDy=0;entryX=0;entryY=0.5;entryDx=0;entryDy=0;" edge="1" parent="1" source="nDJIqRFH-Br7_tVDaRdu-1" target="nDJIqRFH-Br7_tVDaRdu-4">
          <mxGeometry width="50" height="50" relative="1" as="geometry">
            <mxPoint x="1055.3553390593274" y="729.7487373415292" as="sourcePoint" />
            <mxPoint x="1090" y="820" as="targetPoint" />
            <Array as="points">
              <mxPoint x="1170" y="700" />
            </Array>
          </mxGeometry>
        </mxCell>
        <mxCell id="6l1WujIoDoaz9oLlzbZu-77" value="被封装" style="edgeLabel;html=1;align=center;verticalAlign=middle;resizable=0;points=[];" vertex="1" connectable="0" parent="6l1WujIoDoaz9oLlzbZu-23">
          <mxGeometry x="0.1118" y="-7" relative="1" as="geometry">
            <mxPoint as="offset" />
          </mxGeometry>
        </mxCell>
        <mxCell id="6l1WujIoDoaz9oLlzbZu-24" value="" style="curved=1;endArrow=classic;html=1;rounded=0;exitX=0.5;exitY=1;exitDx=0;exitDy=0;entryX=1;entryY=0;entryDx=0;entryDy=0;" edge="1" parent="1" source="6l1WujIoDoaz9oLlzbZu-7" target="nDJIqRFH-Br7_tVDaRdu-9">
          <mxGeometry width="50" height="50" relative="1" as="geometry">
            <mxPoint x="1160" y="630" as="sourcePoint" />
            <mxPoint x="1265.6446609406726" y="730.2512626584708" as="targetPoint" />
            <Array as="points">
              <mxPoint x="1150" y="720" />
            </Array>
          </mxGeometry>
        </mxCell>
        <mxCell id="6l1WujIoDoaz9oLlzbZu-75" value="被封装" style="edgeLabel;html=1;align=center;verticalAlign=middle;resizable=0;points=[];" vertex="1" connectable="0" parent="6l1WujIoDoaz9oLlzbZu-24">
          <mxGeometry x="0.3526" y="1" relative="1" as="geometry">
            <mxPoint as="offset" />
          </mxGeometry>
        </mxCell>
        <mxCell id="6l1WujIoDoaz9oLlzbZu-25" value="" style="curved=1;endArrow=classic;html=1;rounded=0;exitX=0.5;exitY=1;exitDx=0;exitDy=0;entryX=0.23;entryY=0.071;entryDx=0;entryDy=0;entryPerimeter=0;" edge="1" parent="1" source="nDJIqRFH-Br7_tVDaRdu-1" target="nDJIqRFH-Br7_tVDaRdu-9">
          <mxGeometry width="50" height="50" relative="1" as="geometry">
            <mxPoint x="1110" y="665" as="sourcePoint" />
            <mxPoint x="1125.3553390593274" y="830.2512626584708" as="targetPoint" />
            <Array as="points">
              <mxPoint x="1010" y="780" />
            </Array>
          </mxGeometry>
        </mxCell>
        <mxCell id="6l1WujIoDoaz9oLlzbZu-72" value="作为根" style="edgeLabel;html=1;align=center;verticalAlign=middle;resizable=0;points=[];" vertex="1" connectable="0" parent="6l1WujIoDoaz9oLlzbZu-25">
          <mxGeometry x="-0.2579" y="14" relative="1" as="geometry">
            <mxPoint as="offset" />
          </mxGeometry>
        </mxCell>
        <mxCell id="6l1WujIoDoaz9oLlzbZu-26" value="" style="curved=1;endArrow=classic;html=1;rounded=0;exitX=0;exitY=0.5;exitDx=0;exitDy=0;entryX=1;entryY=0;entryDx=0;entryDy=0;" edge="1" parent="1" source="Mi3CnOvdxR0ZW0WN2Oy1-1" target="Mi3CnOvdxR0ZW0WN2Oy1-4">
          <mxGeometry width="50" height="50" relative="1" as="geometry">
            <mxPoint x="740" y="450" as="sourcePoint" />
            <mxPoint x="650" y="565" as="targetPoint" />
            <Array as="points">
              <mxPoint x="600" y="475" />
            </Array>
          </mxGeometry>
        </mxCell>
        <mxCell id="6l1WujIoDoaz9oLlzbZu-98" value="通过引用&lt;br&gt;消除歧义" style="edgeLabel;html=1;align=center;verticalAlign=middle;resizable=0;points=[];" vertex="1" connectable="0" parent="6l1WujIoDoaz9oLlzbZu-26">
          <mxGeometry x="-0.3125" y="6" relative="1" as="geometry">
            <mxPoint as="offset" />
          </mxGeometry>
        </mxCell>
        <mxCell id="6l1WujIoDoaz9oLlzbZu-27" value="" style="curved=1;endArrow=classic;html=1;rounded=0;exitX=0;exitY=0.5;exitDx=0;exitDy=0;entryX=1;entryY=0;entryDx=0;entryDy=0;" edge="1" parent="1" source="Mi3CnOvdxR0ZW0WN2Oy1-4" target="Mi3CnOvdxR0ZW0WN2Oy1-9">
          <mxGeometry width="50" height="50" relative="1" as="geometry">
            <mxPoint x="480" y="575" as="sourcePoint" />
            <mxPoint x="400" y="575" as="targetPoint" />
            <Array as="points">
              <mxPoint x="430" y="540" />
            </Array>
          </mxGeometry>
        </mxCell>
        <mxCell id="6l1WujIoDoaz9oLlzbZu-99" value="评估/概览&lt;br&gt;其关系" style="edgeLabel;html=1;align=center;verticalAlign=middle;resizable=0;points=[];" vertex="1" connectable="0" parent="6l1WujIoDoaz9oLlzbZu-27">
          <mxGeometry x="0.328" y="18" relative="1" as="geometry">
            <mxPoint as="offset" />
          </mxGeometry>
        </mxCell>
        <mxCell id="6l1WujIoDoaz9oLlzbZu-29" value="" style="curved=1;endArrow=classic;html=1;rounded=0;exitX=0.5;exitY=0;exitDx=0;exitDy=0;entryX=1;entryY=0.5;entryDx=0;entryDy=0;" edge="1" parent="1" source="Mi3CnOvdxR0ZW0WN2Oy1-1" target="Mi3CnOvdxR0ZW0WN2Oy1-6">
          <mxGeometry width="50" height="50" relative="1" as="geometry">
            <mxPoint x="660" y="390" as="sourcePoint" />
            <mxPoint x="560" y="390" as="targetPoint" />
            <Array as="points">
              <mxPoint x="700" y="360" />
            </Array>
          </mxGeometry>
        </mxCell>
        <mxCell id="6l1WujIoDoaz9oLlzbZu-125" value="大声的建模" style="edgeLabel;html=1;align=center;verticalAlign=middle;resizable=0;points=[];" vertex="1" connectable="0" parent="6l1WujIoDoaz9oLlzbZu-29">
          <mxGeometry x="-0.0183" y="4" relative="1" as="geometry">
            <mxPoint as="offset" />
          </mxGeometry>
        </mxCell>
        <mxCell id="6l1WujIoDoaz9oLlzbZu-30" value="" style="curved=1;endArrow=classic;html=1;rounded=0;exitX=0.5;exitY=0;exitDx=0;exitDy=0;entryX=0.5;entryY=1;entryDx=0;entryDy=0;" edge="1" parent="1" source="Mi3CnOvdxR0ZW0WN2Oy1-6" target="Mi3CnOvdxR0ZW0WN2Oy1-13">
          <mxGeometry width="50" height="50" relative="1" as="geometry">
            <mxPoint x="730" y="450" as="sourcePoint" />
            <mxPoint x="649.315916941121" y="336.62375431761666" as="targetPoint" />
            <Array as="points">
              <mxPoint x="510" y="270" />
            </Array>
          </mxGeometry>
        </mxCell>
        <mxCell id="6l1WujIoDoaz9oLlzbZu-102" value="重新打包为" style="edgeLabel;html=1;align=center;verticalAlign=middle;resizable=0;points=[];" vertex="1" connectable="0" parent="6l1WujIoDoaz9oLlzbZu-30">
          <mxGeometry x="0.1643" y="-7" relative="1" as="geometry">
            <mxPoint as="offset" />
          </mxGeometry>
        </mxCell>
        <mxCell id="6l1WujIoDoaz9oLlzbZu-31" value="" style="curved=1;endArrow=classic;html=1;rounded=0;entryX=0.5;entryY=1;entryDx=0;entryDy=0;" edge="1" parent="1" target="Mi3CnOvdxR0ZW0WN2Oy1-12">
          <mxGeometry width="50" height="50" relative="1" as="geometry">
            <mxPoint x="560" y="290" as="sourcePoint" />
            <mxPoint x="530" y="200" as="targetPoint" />
            <Array as="points">
              <mxPoint x="600" y="270" />
            </Array>
          </mxGeometry>
        </mxCell>
        <mxCell id="6l1WujIoDoaz9oLlzbZu-101" value="不会受到干扰" style="edgeLabel;html=1;align=center;verticalAlign=middle;resizable=0;points=[];" vertex="1" connectable="0" parent="6l1WujIoDoaz9oLlzbZu-31">
          <mxGeometry x="0.1484" y="6" relative="1" as="geometry">
            <mxPoint as="offset" />
          </mxGeometry>
        </mxCell>
        <mxCell id="6l1WujIoDoaz9oLlzbZu-33" value="声明式风格" style="ellipse;whiteSpace=wrap;html=1;" vertex="1" parent="1">
          <mxGeometry x="520" y="70" width="100" height="70" as="geometry" />
        </mxCell>
        <mxCell id="6l1WujIoDoaz9oLlzbZu-35" value="" style="curved=1;endArrow=classic;html=1;rounded=0;exitX=0.5;exitY=0;exitDx=0;exitDy=0;entryX=0;entryY=0.5;entryDx=0;entryDy=0;" edge="1" parent="1" source="Mi3CnOvdxR0ZW0WN2Oy1-13" target="6l1WujIoDoaz9oLlzbZu-33">
          <mxGeometry width="50" height="50" relative="1" as="geometry">
            <mxPoint x="570" y="300" as="sourcePoint" />
            <mxPoint x="600" y="210" as="targetPoint" />
            <Array as="points">
              <mxPoint x="490" y="130" />
            </Array>
          </mxGeometry>
        </mxCell>
        <mxCell id="6l1WujIoDoaz9oLlzbZu-100" value="精炼为" style="edgeLabel;html=1;align=center;verticalAlign=middle;resizable=0;points=[];" vertex="1" connectable="0" parent="6l1WujIoDoaz9oLlzbZu-35">
          <mxGeometry x="-0.172" y="-10" relative="1" as="geometry">
            <mxPoint as="offset" />
          </mxGeometry>
        </mxCell>
        <mxCell id="6l1WujIoDoaz9oLlzbZu-36" value="精炼为" style="curved=1;endArrow=classic;html=1;rounded=0;exitX=0.5;exitY=0;exitDx=0;exitDy=0;entryX=1;entryY=0.5;entryDx=0;entryDy=0;" edge="1" parent="1" source="Mi3CnOvdxR0ZW0WN2Oy1-12" target="6l1WujIoDoaz9oLlzbZu-33">
          <mxGeometry width="50" height="50" relative="1" as="geometry">
            <mxPoint x="800.7153390593277" y="245.12126265847053" as="sourcePoint" />
            <mxPoint x="910.0046609406724" y="234.61873734152925" as="targetPoint" />
            <Array as="points">
              <mxPoint x="650" y="130" />
            </Array>
          </mxGeometry>
        </mxCell>
        <mxCell id="6l1WujIoDoaz9oLlzbZu-38" value="" style="curved=1;endArrow=classic;html=1;rounded=0;exitX=0;exitY=0;exitDx=0;exitDy=0;" edge="1" parent="1" source="Mi3CnOvdxR0ZW0WN2Oy1-6" target="6l1WujIoDoaz9oLlzbZu-41">
          <mxGeometry width="50" height="50" relative="1" as="geometry">
            <mxPoint x="469.99999999999994" y="350" as="sourcePoint" />
            <mxPoint x="357.08709557974197" y="246.77177389493545" as="targetPoint" />
            <Array as="points">
              <mxPoint x="449.99999999999994" y="270" />
            </Array>
          </mxGeometry>
        </mxCell>
        <mxCell id="6l1WujIoDoaz9oLlzbZu-103" value="通过其&lt;br&gt;指明方向" style="edgeLabel;html=1;align=center;verticalAlign=middle;resizable=0;points=[];" vertex="1" connectable="0" parent="6l1WujIoDoaz9oLlzbZu-38">
          <mxGeometry x="0.2686" y="5" relative="1" as="geometry">
            <mxPoint as="offset" />
          </mxGeometry>
        </mxCell>
        <mxCell id="6l1WujIoDoaz9oLlzbZu-40" value="" style="curved=1;endArrow=classic;html=1;rounded=0;exitX=0;exitY=0.5;exitDx=0;exitDy=0;entryX=0.5;entryY=0;entryDx=0;entryDy=0;" edge="1" parent="1" source="Mi3CnOvdxR0ZW0WN2Oy1-6" target="Mi3CnOvdxR0ZW0WN2Oy1-9">
          <mxGeometry width="50" height="50" relative="1" as="geometry">
            <mxPoint x="480" y="485" as="sourcePoint" />
            <mxPoint x="377" y="544.01" as="targetPoint" />
            <Array as="points">
              <mxPoint x="270" y="350" />
            </Array>
          </mxGeometry>
        </mxCell>
        <mxCell id="6l1WujIoDoaz9oLlzbZu-89" value="关联起各部分" style="edgeLabel;html=1;align=center;verticalAlign=middle;resizable=0;points=[];" vertex="1" connectable="0" parent="6l1WujIoDoaz9oLlzbZu-40">
          <mxGeometry x="-0.3202" y="34" relative="1" as="geometry">
            <mxPoint as="offset" />
          </mxGeometry>
        </mxCell>
        <mxCell id="6l1WujIoDoaz9oLlzbZu-41" value="领域愿景&lt;br&gt;声明" style="ellipse;whiteSpace=wrap;html=1;" vertex="1" parent="1">
          <mxGeometry x="200" y="240" width="100" height="70" as="geometry" />
        </mxCell>
        <mxCell id="6l1WujIoDoaz9oLlzbZu-42" value="" style="curved=1;endArrow=classic;html=1;rounded=0;exitX=1;exitY=0.5;exitDx=0;exitDy=0;entryX=0.5;entryY=1;entryDx=0;entryDy=0;" edge="1" parent="1" source="Mi3CnOvdxR0ZW0WN2Oy1-4" target="Mi3CnOvdxR0ZW0WN2Oy1-1">
          <mxGeometry width="50" height="50" relative="1" as="geometry">
            <mxPoint x="694.6446609406723" y="509.74873734152925" as="sourcePoint" />
            <mxPoint x="600" y="600" as="targetPoint" />
            <Array as="points">
              <mxPoint x="700" y="530" />
            </Array>
          </mxGeometry>
        </mxCell>
        <mxCell id="6l1WujIoDoaz9oLlzbZu-97" value="名称加入" style="edgeLabel;html=1;align=center;verticalAlign=middle;resizable=0;points=[];" vertex="1" connectable="0" parent="6l1WujIoDoaz9oLlzbZu-42">
          <mxGeometry x="0.2496" y="5" relative="1" as="geometry">
            <mxPoint as="offset" />
          </mxGeometry>
        </mxCell>
        <mxCell id="6l1WujIoDoaz9oLlzbZu-44" value="共享内核" style="ellipse;whiteSpace=wrap;html=1;" vertex="1" parent="1">
          <mxGeometry x="590" y="670" width="100" height="70" as="geometry" />
        </mxCell>
        <mxCell id="6l1WujIoDoaz9oLlzbZu-45" value="开放主机服务" style="ellipse;whiteSpace=wrap;html=1;" vertex="1" parent="1">
          <mxGeometry x="160" y="720" width="100" height="70" as="geometry" />
        </mxCell>
        <mxCell id="6l1WujIoDoaz9oLlzbZu-46" value="防腐层" style="ellipse;whiteSpace=wrap;html=1;" vertex="1" parent="1">
          <mxGeometry x="330" y="770" width="100" height="70" as="geometry" />
        </mxCell>
        <mxCell id="6l1WujIoDoaz9oLlzbZu-47" value="各行其道" style="ellipse;whiteSpace=wrap;html=1;" vertex="1" parent="1">
          <mxGeometry x="470" y="730" width="100" height="70" as="geometry" />
        </mxCell>
        <mxCell id="6l1WujIoDoaz9oLlzbZu-50" value="追随者" style="ellipse;whiteSpace=wrap;html=1;" vertex="1" parent="1">
          <mxGeometry x="120" y="630" width="100" height="70" as="geometry" />
        </mxCell>
        <mxCell id="6l1WujIoDoaz9oLlzbZu-51" value="客户/供应商&lt;br&gt;团队" style="ellipse;whiteSpace=wrap;html=1;" vertex="1" parent="1">
          <mxGeometry x="120" y="550" width="100" height="70" as="geometry" />
        </mxCell>
        <mxCell id="6l1WujIoDoaz9oLlzbZu-52" value="" style="curved=1;endArrow=classic;html=1;rounded=0;exitX=0.5;exitY=0;exitDx=0;exitDy=0;entryX=1;entryY=0.5;entryDx=0;entryDy=0;" edge="1" parent="1" source="Mi3CnOvdxR0ZW0WN2Oy1-9" target="Mi3CnOvdxR0ZW0WN2Oy1-7">
          <mxGeometry width="50" height="50" relative="1" as="geometry">
            <mxPoint x="480" y="535" as="sourcePoint" />
            <mxPoint x="377" y="564.01" as="targetPoint" />
            <Array as="points">
              <mxPoint x="330" y="520" />
            </Array>
          </mxGeometry>
        </mxCell>
        <mxCell id="6l1WujIoDoaz9oLlzbZu-122" value="分解混乱" style="edgeLabel;html=1;align=center;verticalAlign=middle;resizable=0;points=[];" vertex="1" connectable="0" parent="6l1WujIoDoaz9oLlzbZu-52">
          <mxGeometry x="0.2485" y="11" relative="1" as="geometry">
            <mxPoint as="offset" />
          </mxGeometry>
        </mxCell>
        <mxCell id="6l1WujIoDoaz9oLlzbZu-53" value="" style="curved=1;endArrow=classic;html=1;rounded=0;exitX=0;exitY=0;exitDx=0;exitDy=0;entryX=1;entryY=0.5;entryDx=0;entryDy=0;" edge="1" parent="1" source="Mi3CnOvdxR0ZW0WN2Oy1-9" target="6l1WujIoDoaz9oLlzbZu-51">
          <mxGeometry width="50" height="50" relative="1" as="geometry">
            <mxPoint x="314.64466094067257" y="610.2512626584708" as="sourcePoint" />
            <mxPoint x="265.35533905932743" y="539.7487373415292" as="targetPoint" />
            <Array as="points">
              <mxPoint x="260" y="580" />
            </Array>
          </mxGeometry>
        </mxCell>
        <mxCell id="6l1WujIoDoaz9oLlzbZu-123" value="作为" style="edgeLabel;html=1;align=center;verticalAlign=middle;resizable=0;points=[];" vertex="1" connectable="0" parent="6l1WujIoDoaz9oLlzbZu-53">
          <mxGeometry x="-0.0145" y="1" relative="1" as="geometry">
            <mxPoint as="offset" />
          </mxGeometry>
        </mxCell>
        <mxCell id="6l1WujIoDoaz9oLlzbZu-54" value="" style="curved=1;endArrow=classic;html=1;rounded=0;exitX=0;exitY=0.5;exitDx=0;exitDy=0;entryX=1;entryY=0;entryDx=0;entryDy=0;" edge="1" parent="1" source="Mi3CnOvdxR0ZW0WN2Oy1-9" target="6l1WujIoDoaz9oLlzbZu-50">
          <mxGeometry width="50" height="50" relative="1" as="geometry">
            <mxPoint x="314.64466094067257" y="610.2512626584708" as="sourcePoint" />
            <mxPoint x="150" y="670" as="targetPoint" />
            <Array as="points">
              <mxPoint x="240" y="620" />
            </Array>
          </mxGeometry>
        </mxCell>
        <mxCell id="6l1WujIoDoaz9oLlzbZu-117" value="单向重叠" style="edgeLabel;html=1;align=center;verticalAlign=middle;resizable=0;points=[];" vertex="1" connectable="0" parent="6l1WujIoDoaz9oLlzbZu-54">
          <mxGeometry x="-0.0788" y="6" relative="1" as="geometry">
            <mxPoint as="offset" />
          </mxGeometry>
        </mxCell>
        <mxCell id="6l1WujIoDoaz9oLlzbZu-55" value="" style="curved=1;endArrow=classic;html=1;rounded=0;exitX=0;exitY=1;exitDx=0;exitDy=0;entryX=1;entryY=0;entryDx=0;entryDy=0;" edge="1" parent="1" source="Mi3CnOvdxR0ZW0WN2Oy1-9" target="6l1WujIoDoaz9oLlzbZu-45">
          <mxGeometry width="50" height="50" relative="1" as="geometry">
            <mxPoint x="300" y="635" as="sourcePoint" />
            <mxPoint x="175.35533905932743" y="670.2512626584708" as="targetPoint" />
            <Array as="points" />
          </mxGeometry>
        </mxCell>
        <mxCell id="6l1WujIoDoaz9oLlzbZu-121" value="支持多个&lt;br&gt;客户端" style="edgeLabel;html=1;align=center;verticalAlign=middle;resizable=0;points=[];" vertex="1" connectable="0" parent="6l1WujIoDoaz9oLlzbZu-55">
          <mxGeometry x="-0.2023" y="2" relative="1" as="geometry">
            <mxPoint y="1" as="offset" />
          </mxGeometry>
        </mxCell>
        <mxCell id="6l1WujIoDoaz9oLlzbZu-56" value="" style="curved=1;endArrow=classic;html=1;rounded=0;exitX=0.5;exitY=1;exitDx=0;exitDy=0;entryX=0.5;entryY=0;entryDx=0;entryDy=0;" edge="1" parent="1" source="Mi3CnOvdxR0ZW0WN2Oy1-9" target="6l1WujIoDoaz9oLlzbZu-46">
          <mxGeometry width="50" height="50" relative="1" as="geometry">
            <mxPoint x="314.64466094067257" y="659.7487373415292" as="sourcePoint" />
            <mxPoint x="230" y="740" as="targetPoint" />
            <Array as="points">
              <mxPoint x="320" y="720" />
            </Array>
          </mxGeometry>
        </mxCell>
        <mxCell id="6l1WujIoDoaz9oLlzbZu-115" value="单项转换并隔离" style="edgeLabel;html=1;align=center;verticalAlign=middle;resizable=0;points=[];" vertex="1" connectable="0" parent="6l1WujIoDoaz9oLlzbZu-56">
          <mxGeometry x="0.1105" y="17" relative="1" as="geometry">
            <mxPoint x="10" y="15" as="offset" />
          </mxGeometry>
        </mxCell>
        <mxCell id="6l1WujIoDoaz9oLlzbZu-57" value="团队自由工作" style="curved=1;endArrow=classic;html=1;rounded=0;exitX=1;exitY=1;exitDx=0;exitDy=0;entryX=0.5;entryY=0;entryDx=0;entryDy=0;" edge="1" parent="1" source="Mi3CnOvdxR0ZW0WN2Oy1-9" target="6l1WujIoDoaz9oLlzbZu-47">
          <mxGeometry width="50" height="50" relative="1" as="geometry">
            <mxPoint x="350" y="670" as="sourcePoint" />
            <mxPoint x="350" y="780" as="targetPoint" />
            <Array as="points">
              <mxPoint x="500" y="700" />
            </Array>
          </mxGeometry>
        </mxCell>
        <mxCell id="6l1WujIoDoaz9oLlzbZu-58" value="" style="curved=1;endArrow=classic;html=1;rounded=0;exitX=1;exitY=0.5;exitDx=0;exitDy=0;entryX=0;entryY=0;entryDx=0;entryDy=0;" edge="1" parent="1" source="Mi3CnOvdxR0ZW0WN2Oy1-9" target="6l1WujIoDoaz9oLlzbZu-44">
          <mxGeometry width="50" height="50" relative="1" as="geometry">
            <mxPoint x="365.35533905932743" y="599.7487373415292" as="sourcePoint" />
            <mxPoint x="404.64466094067257" y="710.2512626584708" as="targetPoint" />
            <Array as="points">
              <mxPoint x="510" y="610" />
            </Array>
          </mxGeometry>
        </mxCell>
        <mxCell id="6l1WujIoDoaz9oLlzbZu-116" value="重叠&lt;br&gt;上下文" style="edgeLabel;html=1;align=center;verticalAlign=middle;resizable=0;points=[];" vertex="1" connectable="0" parent="6l1WujIoDoaz9oLlzbZu-58">
          <mxGeometry x="0.0253" y="-20" relative="1" as="geometry">
            <mxPoint as="offset" />
          </mxGeometry>
        </mxCell>
        <mxCell id="6l1WujIoDoaz9oLlzbZu-59" value="" style="curved=1;endArrow=classic;html=1;rounded=0;exitX=0.5;exitY=0;exitDx=0;exitDy=0;entryX=1;entryY=0.5;entryDx=0;entryDy=0;" edge="1" parent="1" source="Mi3CnOvdxR0ZW0WN2Oy1-4" target="Mi3CnOvdxR0ZW0WN2Oy1-5">
          <mxGeometry width="50" height="50" relative="1" as="geometry">
            <mxPoint x="623" y="410.99" as="sourcePoint" />
            <mxPoint x="470" y="460" as="targetPoint" />
            <Array as="points">
              <mxPoint x="530" y="455" />
            </Array>
          </mxGeometry>
        </mxCell>
        <mxCell id="6l1WujIoDoaz9oLlzbZu-90" value="使其保持统一" style="edgeLabel;html=1;align=center;verticalAlign=middle;resizable=0;points=[];" vertex="1" connectable="0" parent="6l1WujIoDoaz9oLlzbZu-59">
          <mxGeometry x="-0.0192" y="7" relative="1" as="geometry">
            <mxPoint y="14" as="offset" />
          </mxGeometry>
        </mxCell>
        <mxCell id="6l1WujIoDoaz9oLlzbZu-60" value="" style="curved=1;endArrow=classic;html=1;rounded=0;exitX=0;exitY=1;exitDx=0;exitDy=0;entryX=1;entryY=0;entryDx=0;entryDy=0;" edge="1" parent="1" source="Mi3CnOvdxR0ZW0WN2Oy1-14" target="Mi3CnOvdxR0ZW0WN2Oy1-1">
          <mxGeometry width="50" height="50" relative="1" as="geometry">
            <mxPoint x="975.3553390593274" y="460.25126265847075" as="sourcePoint" />
            <mxPoint x="1170" y="495" as="targetPoint" />
            <Array as="points">
              <mxPoint x="750" y="400" />
            </Array>
          </mxGeometry>
        </mxCell>
        <mxCell id="6l1WujIoDoaz9oLlzbZu-86" value="从其得到" style="edgeLabel;html=1;align=center;verticalAlign=middle;resizable=0;points=[];" vertex="1" connectable="0" parent="6l1WujIoDoaz9oLlzbZu-60">
          <mxGeometry x="-0.1973" y="8" relative="1" as="geometry">
            <mxPoint as="offset" />
          </mxGeometry>
        </mxCell>
        <mxCell id="6l1WujIoDoaz9oLlzbZu-61" value="用以表达模型" style="curved=1;endArrow=classic;html=1;rounded=0;exitX=0;exitY=0;exitDx=0;exitDy=0;entryX=0.5;entryY=1;entryDx=0;entryDy=0;" edge="1" parent="1" source="Mi3CnOvdxR0ZW0WN2Oy1-2" target="Mi3CnOvdxR0ZW0WN2Oy1-14">
          <mxGeometry width="50" height="50" relative="1" as="geometry">
            <mxPoint x="864.6446609406726" y="379.74873734152925" as="sourcePoint" />
            <mxPoint x="860" y="370" as="targetPoint" />
            <Array as="points" />
          </mxGeometry>
        </mxCell>
        <mxCell id="6l1WujIoDoaz9oLlzbZu-62" value="" style="curved=1;endArrow=classic;html=1;rounded=0;exitX=1;exitY=0.5;exitDx=0;exitDy=0;entryX=0;entryY=0.5;entryDx=0;entryDy=0;" edge="1" parent="1" source="Mi3CnOvdxR0ZW0WN2Oy1-14" target="Mi3CnOvdxR0ZW0WN2Oy1-8">
          <mxGeometry width="50" height="50" relative="1" as="geometry">
            <mxPoint x="940" y="345" as="sourcePoint" />
            <mxPoint x="909.8058067569091" y="389.3203236491818" as="targetPoint" />
            <Array as="points">
              <mxPoint x="1020" y="310" />
            </Array>
          </mxGeometry>
        </mxCell>
        <mxCell id="6l1WujIoDoaz9oLlzbZu-82" value="用以简化解释" style="edgeLabel;html=1;align=center;verticalAlign=middle;resizable=0;points=[];" vertex="1" connectable="0" parent="6l1WujIoDoaz9oLlzbZu-62">
          <mxGeometry x="0.1557" relative="1" as="geometry">
            <mxPoint as="offset" />
          </mxGeometry>
        </mxCell>
        <mxCell id="6l1WujIoDoaz9oLlzbZu-63" value="" style="curved=1;endArrow=classic;html=1;rounded=0;exitX=0.5;exitY=0;exitDx=0;exitDy=0;entryX=0;entryY=1;entryDx=0;entryDy=0;" edge="1" parent="1" source="Mi3CnOvdxR0ZW0WN2Oy1-14" target="Mi3CnOvdxR0ZW0WN2Oy1-15">
          <mxGeometry width="50" height="50" relative="1" as="geometry">
            <mxPoint x="890" y="310" as="sourcePoint" />
            <mxPoint x="1130" y="255" as="targetPoint" />
            <Array as="points">
              <mxPoint x="880" y="220" />
            </Array>
          </mxGeometry>
        </mxCell>
        <mxCell id="6l1WujIoDoaz9oLlzbZu-84" value="暴露副作用" style="edgeLabel;html=1;align=center;verticalAlign=middle;resizable=0;points=[];" vertex="1" connectable="0" parent="6l1WujIoDoaz9oLlzbZu-63">
          <mxGeometry x="0.3558" y="-4" relative="1" as="geometry">
            <mxPoint y="-1" as="offset" />
          </mxGeometry>
        </mxCell>
        <mxCell id="6l1WujIoDoaz9oLlzbZu-64" value="" style="curved=1;endArrow=classic;html=1;rounded=0;exitX=1;exitY=0;exitDx=0;exitDy=0;entryX=0;entryY=0.5;entryDx=0;entryDy=0;" edge="1" parent="1" source="Mi3CnOvdxR0ZW0WN2Oy1-14" target="Mi3CnOvdxR0ZW0WN2Oy1-16">
          <mxGeometry width="50" height="50" relative="1" as="geometry">
            <mxPoint x="925.3553390593274" y="320.25126265847075" as="sourcePoint" />
            <mxPoint x="1044.6446609406726" y="189.74873734152925" as="targetPoint" />
            <Array as="points">
              <mxPoint x="980" y="240" />
            </Array>
          </mxGeometry>
        </mxCell>
        <mxCell id="6l1WujIoDoaz9oLlzbZu-83" value="使之安全简单" style="edgeLabel;html=1;align=center;verticalAlign=middle;resizable=0;points=[];" vertex="1" connectable="0" parent="6l1WujIoDoaz9oLlzbZu-64">
          <mxGeometry x="0.089" y="-10" relative="1" as="geometry">
            <mxPoint as="offset" />
          </mxGeometry>
        </mxCell>
        <mxCell id="6l1WujIoDoaz9oLlzbZu-65" value="" style="curved=1;endArrow=classic;html=1;rounded=0;exitX=1;exitY=1;exitDx=0;exitDy=0;entryX=0;entryY=0.5;entryDx=0;entryDy=0;" edge="1" parent="1" source="Mi3CnOvdxR0ZW0WN2Oy1-14" target="Mi3CnOvdxR0ZW0WN2Oy1-17">
          <mxGeometry width="50" height="50" relative="1" as="geometry">
            <mxPoint x="925.3553390593274" y="369.74873734152925" as="sourcePoint" />
            <mxPoint x="1090" y="315" as="targetPoint" />
            <Array as="points">
              <mxPoint x="1030" y="350" />
            </Array>
          </mxGeometry>
        </mxCell>
        <mxCell id="6l1WujIoDoaz9oLlzbZu-87" value="用以降低变更成本" style="edgeLabel;html=1;align=center;verticalAlign=middle;resizable=0;points=[];" vertex="1" connectable="0" parent="6l1WujIoDoaz9oLlzbZu-65">
          <mxGeometry x="-0.2057" y="-10" relative="1" as="geometry">
            <mxPoint as="offset" />
          </mxGeometry>
        </mxCell>
        <mxCell id="6l1WujIoDoaz9oLlzbZu-67" value="" style="curved=1;endArrow=classic;html=1;rounded=0;exitX=0.5;exitY=0;exitDx=0;exitDy=0;entryX=1;entryY=0;entryDx=0;entryDy=0;startArrow=classic;startFill=1;" edge="1" parent="1" source="Mi3CnOvdxR0ZW0WN2Oy1-16" target="Mi3CnOvdxR0ZW0WN2Oy1-15">
          <mxGeometry width="50" height="50" relative="1" as="geometry">
            <mxPoint x="1120" y="140" as="sourcePoint" />
            <mxPoint x="1170" y="90" as="targetPoint" />
            <Array as="points">
              <mxPoint x="1080" y="130" />
            </Array>
          </mxGeometry>
        </mxCell>
        <mxCell id="6l1WujIoDoaz9oLlzbZu-85" value="可以安全组合" style="edgeLabel;html=1;align=center;verticalAlign=middle;resizable=0;points=[];" vertex="1" connectable="0" parent="6l1WujIoDoaz9oLlzbZu-67">
          <mxGeometry x="-0.1806" y="8" relative="1" as="geometry">
            <mxPoint as="offset" />
          </mxGeometry>
        </mxCell>
        <mxCell id="6l1WujIoDoaz9oLlzbZu-88" value="" style="curved=1;endArrow=classic;html=1;rounded=0;exitX=1;exitY=1;exitDx=0;exitDy=0;entryX=0;entryY=0;entryDx=0;entryDy=0;" edge="1" parent="1" source="Mi3CnOvdxR0ZW0WN2Oy1-6" target="Mi3CnOvdxR0ZW0WN2Oy1-1">
          <mxGeometry width="50" height="50" relative="1" as="geometry">
            <mxPoint x="730" y="450" as="sourcePoint" />
            <mxPoint x="617.087095579742" y="346.77177389493545" as="targetPoint" />
            <Array as="points">
              <mxPoint x="610" y="400" />
            </Array>
          </mxGeometry>
        </mxCell>
        <mxCell id="6l1WujIoDoaz9oLlzbZu-124" value="强化" style="edgeLabel;html=1;align=center;verticalAlign=middle;resizable=0;points=[];" vertex="1" connectable="0" parent="6l1WujIoDoaz9oLlzbZu-88">
          <mxGeometry x="-0.5194" y="10" relative="1" as="geometry">
            <mxPoint as="offset" />
          </mxGeometry>
        </mxCell>
        <mxCell id="6l1WujIoDoaz9oLlzbZu-91" value="" style="curved=1;endArrow=classic;html=1;rounded=0;entryX=0;entryY=0;entryDx=0;entryDy=0;exitX=1;exitY=0;exitDx=0;exitDy=0;" edge="1" parent="1" source="Mi3CnOvdxR0ZW0WN2Oy1-1" target="Mi3CnOvdxR0ZW0WN2Oy1-2">
          <mxGeometry width="50" height="50" relative="1" as="geometry">
            <mxPoint x="810" y="450" as="sourcePoint" />
            <mxPoint x="575.3553390593277" y="480.2512626584705" as="targetPoint" />
            <Array as="points">
              <mxPoint x="820" y="430" />
            </Array>
          </mxGeometry>
        </mxCell>
        <mxCell id="6l1WujIoDoaz9oLlzbZu-93" value="给予结构" style="edgeLabel;html=1;align=center;verticalAlign=middle;resizable=0;points=[];" vertex="1" connectable="0" parent="6l1WujIoDoaz9oLlzbZu-91">
          <mxGeometry x="-0.0096" y="-11" relative="1" as="geometry">
            <mxPoint as="offset" />
          </mxGeometry>
        </mxCell>
        <mxCell id="6l1WujIoDoaz9oLlzbZu-92" value="" style="curved=1;endArrow=classic;html=1;rounded=0;entryX=1;entryY=1;entryDx=0;entryDy=0;exitX=0;exitY=0.5;exitDx=0;exitDy=0;" edge="1" parent="1" source="Mi3CnOvdxR0ZW0WN2Oy1-2" target="Mi3CnOvdxR0ZW0WN2Oy1-4">
          <mxGeometry width="50" height="50" relative="1" as="geometry">
            <mxPoint x="770.7153390593274" y="495.12126265847076" as="sourcePoint" />
            <mxPoint x="910.0046609406726" y="495.12126265847076" as="targetPoint" />
            <Array as="points">
              <mxPoint x="760" y="570" />
            </Array>
          </mxGeometry>
        </mxCell>
        <mxCell id="6l1WujIoDoaz9oLlzbZu-94" value="在其中定义" style="edgeLabel;html=1;align=center;verticalAlign=middle;resizable=0;points=[];" vertex="1" connectable="0" parent="6l1WujIoDoaz9oLlzbZu-92">
          <mxGeometry x="0.267" y="-5" relative="1" as="geometry">
            <mxPoint x="1" as="offset" />
          </mxGeometry>
        </mxCell>
        <mxCell id="6l1WujIoDoaz9oLlzbZu-104" value="内聚&lt;br&gt;机制" style="ellipse;whiteSpace=wrap;html=1;" vertex="1" parent="1">
          <mxGeometry x="690" y="200" width="100" height="70" as="geometry" />
        </mxCell>
        <mxCell id="6l1WujIoDoaz9oLlzbZu-105" value="" style="curved=1;endArrow=classic;html=1;rounded=0;exitX=1;exitY=0;exitDx=0;exitDy=0;entryX=0;entryY=1;entryDx=0;entryDy=0;" edge="1" parent="1" target="6l1WujIoDoaz9oLlzbZu-104">
          <mxGeometry width="50" height="50" relative="1" as="geometry">
            <mxPoint x="605.3553390593277" y="310.2512626584705" as="sourcePoint" />
            <mxPoint x="624.6446609406723" y="229.74873734152925" as="targetPoint" />
            <Array as="points">
              <mxPoint x="640" y="310" />
            </Array>
          </mxGeometry>
        </mxCell>
        <mxCell id="6l1WujIoDoaz9oLlzbZu-106" value="不会受其&lt;br&gt;干扰" style="edgeLabel;html=1;align=center;verticalAlign=middle;resizable=0;points=[];" vertex="1" connectable="0" parent="6l1WujIoDoaz9oLlzbZu-105">
          <mxGeometry x="0.1484" y="6" relative="1" as="geometry">
            <mxPoint x="-15" y="5" as="offset" />
          </mxGeometry>
        </mxCell>
        <mxCell id="6l1WujIoDoaz9oLlzbZu-107" value="" style="curved=1;endArrow=classic;html=1;rounded=0;exitX=1;exitY=1;exitDx=0;exitDy=0;entryX=0;entryY=0;entryDx=0;entryDy=0;" edge="1" parent="1" source="6l1WujIoDoaz9oLlzbZu-104" target="Mi3CnOvdxR0ZW0WN2Oy1-14">
          <mxGeometry width="50" height="50" relative="1" as="geometry">
            <mxPoint x="615.3553390593277" y="320.2512626584705" as="sourcePoint" />
            <mxPoint x="700" y="265" as="targetPoint" />
            <Array as="points">
              <mxPoint x="830" y="260" />
            </Array>
          </mxGeometry>
        </mxCell>
        <mxCell id="6l1WujIoDoaz9oLlzbZu-108" value="通过它&lt;br&gt;展现能力" style="edgeLabel;html=1;align=center;verticalAlign=middle;resizable=0;points=[];" vertex="1" connectable="0" parent="6l1WujIoDoaz9oLlzbZu-107">
          <mxGeometry x="0.1484" y="6" relative="1" as="geometry">
            <mxPoint x="-15" y="5" as="offset" />
          </mxGeometry>
        </mxCell>
        <mxCell id="6l1WujIoDoaz9oLlzbZu-109" value="高亮核心" style="ellipse;whiteSpace=wrap;html=1;" vertex="1" parent="1">
          <mxGeometry x="270" y="120" width="100" height="70" as="geometry" />
        </mxCell>
        <mxCell id="6l1WujIoDoaz9oLlzbZu-110" value="抽象核心" style="ellipse;whiteSpace=wrap;html=1;" vertex="1" parent="1">
          <mxGeometry x="380" y="40" width="100" height="70" as="geometry" />
        </mxCell>
        <mxCell id="6l1WujIoDoaz9oLlzbZu-111" value="" style="curved=1;endArrow=classic;html=1;rounded=0;entryX=0.5;entryY=1;entryDx=0;entryDy=0;" edge="1" parent="1" target="6l1WujIoDoaz9oLlzbZu-110">
          <mxGeometry width="50" height="50" relative="1" as="geometry">
            <mxPoint x="440" y="170" as="sourcePoint" />
            <mxPoint x="770" y="160" as="targetPoint" />
            <Array as="points">
              <mxPoint x="440" y="170" />
            </Array>
          </mxGeometry>
        </mxCell>
        <mxCell id="6l1WujIoDoaz9oLlzbZu-112" value="不会受其&lt;br&gt;干扰" style="edgeLabel;html=1;align=center;verticalAlign=middle;resizable=0;points=[];" vertex="1" connectable="0" parent="6l1WujIoDoaz9oLlzbZu-111">
          <mxGeometry x="0.1484" y="6" relative="1" as="geometry">
            <mxPoint x="-15" y="5" as="offset" />
          </mxGeometry>
        </mxCell>
        <mxCell id="6l1WujIoDoaz9oLlzbZu-113" value="" style="curved=1;endArrow=classic;html=1;rounded=0;exitX=0;exitY=0;exitDx=0;exitDy=0;entryX=1;entryY=1;entryDx=0;entryDy=0;" edge="1" parent="1" source="Mi3CnOvdxR0ZW0WN2Oy1-6" target="6l1WujIoDoaz9oLlzbZu-109">
          <mxGeometry width="50" height="50" relative="1" as="geometry">
            <mxPoint x="534.6446609406723" y="310.25126265847075" as="sourcePoint" />
            <mxPoint x="309.9681427173773" y="283.7507964320657" as="targetPoint" />
            <Array as="points">
              <mxPoint x="459.99999999999994" y="280" />
            </Array>
          </mxGeometry>
        </mxCell>
        <mxCell id="6l1WujIoDoaz9oLlzbZu-114" value="通过其&lt;br&gt;指明指明内容" style="edgeLabel;html=1;align=center;verticalAlign=middle;resizable=0;points=[];" vertex="1" connectable="0" parent="6l1WujIoDoaz9oLlzbZu-113">
          <mxGeometry x="0.2686" y="5" relative="1" as="geometry">
            <mxPoint as="offset" />
          </mxGeometry>
        </mxCell>
        <mxCell id="6l1WujIoDoaz9oLlzbZu-118" value="已发布语言" style="ellipse;whiteSpace=wrap;html=1;" vertex="1" parent="1">
          <mxGeometry x="220" y="840" width="100" height="70" as="geometry" />
        </mxCell>
        <mxCell id="6l1WujIoDoaz9oLlzbZu-119" value="" style="curved=1;endArrow=classic;html=1;rounded=0;exitX=0.5;exitY=1;exitDx=0;exitDy=0;entryX=0;entryY=0;entryDx=0;entryDy=0;" edge="1" parent="1" source="6l1WujIoDoaz9oLlzbZu-45" target="6l1WujIoDoaz9oLlzbZu-118">
          <mxGeometry width="50" height="50" relative="1" as="geometry">
            <mxPoint x="344.64466094067257" y="669.7487373415292" as="sourcePoint" />
            <mxPoint x="230" y="710" as="targetPoint" />
            <Array as="points">
              <mxPoint x="200" y="810" />
            </Array>
          </mxGeometry>
        </mxCell>
        <mxCell id="6l1WujIoDoaz9oLlzbZu-120" value="形式化为" style="edgeLabel;html=1;align=center;verticalAlign=middle;resizable=0;points=[];" vertex="1" connectable="0" parent="6l1WujIoDoaz9oLlzbZu-119">
          <mxGeometry x="0.1608" y="9" relative="1" as="geometry">
            <mxPoint as="offset" />
          </mxGeometry>
        </mxCell>
      </root>
    </mxGraphModel>
  </diagram>
</mxfile>
